<svg width="31" height="23" viewBox="0 0 31 23" fill="none" xmlns="http://www.w3.org/2000/svg">
<path d="M26.9245 1.5216L3.86548 5.81641L6.4174 18.5306L29.4764 14.2358L26.9245 1.5216Z" fill="#569F7D"/>
<path d="M25.4697 5.00322L2.10962 7.34375L3.50033 20.224L26.8604 17.8834L25.4697 5.00322Z" fill="#60B18B"/>
<path d="M24.1133 8.52734H0.627197V21.4771H24.1133V8.52734Z" fill="#8ED8B5"/>
<path d="M21.9509 17.8311C21.4515 17.8322 20.9729 18.0241 20.6202 18.3647C20.2675 18.7053 20.0694 19.1667 20.0694 19.6478H4.67392C4.67392 19.4092 4.62512 19.1729 4.5303 18.9525C4.43548 18.732 4.29651 18.5317 4.12132 18.363C3.94613 18.1943 3.73815 18.0605 3.50926 17.9692C3.28038 17.878 3.03507 17.831 2.78735 17.8311V12.1767C3.0351 12.1767 3.28042 12.1297 3.50931 12.0384C3.7382 11.947 3.94617 11.8132 4.12136 11.6444C4.29654 11.4757 4.4355 11.2753 4.53031 11.0548C4.62512 10.8343 4.67392 10.598 4.67392 10.3594H20.0694C20.0692 10.8406 20.2672 11.3022 20.62 11.6429C20.9727 11.9836 21.4514 12.1756 21.9509 12.1767V17.8311Z" fill="#B1DFBC"/>
<path d="M12.3711 17.7293C13.934 17.7293 15.201 16.5089 15.201 15.0033C15.201 13.4978 13.934 12.2773 12.3711 12.2773C10.8082 12.2773 9.54126 13.4978 9.54126 15.0033C9.54126 16.5089 10.8082 17.7293 12.3711 17.7293Z" fill="#8ED8B5"/>
<path d="M25.9323 2.90261L28.2529 14.4639L29.4784 14.2356L26.9264 1.52148L3.86743 5.8165L4.09886 6.96926L25.9323 2.90261Z" fill="#60B18B"/>
<path d="M24.4758 6.38308L25.7296 17.9952L26.8604 17.8822L25.4699 5.00195L2.10986 7.3425L2.24659 8.61064L24.4758 6.38308Z" fill="#8ED8B5"/>
<path d="M0.627197 8.52734V9.7538H22.8295V21.4771H24.1133V8.52734H0.627197Z" fill="#B1DFBC"/>
<path d="M3.30352 12.0977C3.13609 12.1467 2.96235 12.173 2.78735 12.1756V12.9091C3.03136 12.6877 3.20956 12.4076 3.30352 12.0977ZM19.2841 19.6467H20.0694C20.0719 19.4727 20.1007 19.2999 20.1547 19.1338C19.8208 19.2239 19.5195 19.4015 19.2841 19.6467Z" fill="#8ED8B5"/>
<path d="M20.0693 10.3594H4.67387C4.67303 10.8145 4.49383 11.2525 4.17212 11.5858H18.7855C18.7855 11.8245 18.8343 12.0607 18.9291 12.2812C19.0239 12.5017 19.1629 12.702 19.3381 12.8707C19.5133 13.0394 19.7212 13.1732 19.9501 13.2644C20.179 13.3557 20.4243 13.4026 20.672 13.4026V18.3235C21.018 18.009 21.4752 17.8329 21.9509 17.8311V12.1767C21.4513 12.1756 20.9727 11.9836 20.6199 11.6429C20.2672 11.3022 20.0691 10.8406 20.0693 10.3594Z" fill="#C1ECD0"/>
<path d="M12.3705 12.2766C11.8462 12.278 11.3326 12.42 10.8874 12.6868C10.4422 12.9536 10.0829 13.3346 9.84985 13.787C10.2337 13.6018 10.6567 13.5042 11.086 13.5019C11.4577 13.5019 11.8256 13.5724 12.169 13.7094C12.5123 13.8464 12.8243 14.0472 13.087 14.3003C13.3498 14.5534 13.5583 14.8539 13.7005 15.1847C13.8427 15.5154 13.9159 15.8699 13.9159 16.2279C13.9131 16.6504 13.8072 17.0664 13.6067 17.4422C14.1828 17.1742 14.6473 16.7254 14.9239 16.1697C15.2006 15.614 15.273 14.9841 15.1293 14.3836C14.9856 13.783 14.6343 13.2472 14.1331 12.8642C13.6318 12.4811 13.0103 12.2735 12.3705 12.2754V12.2766Z" fill="#B1DFBC"/>
<path d="M24.1133 22.0819H0.627182C0.460843 22.0819 0.301317 22.0182 0.183698 21.9049C0.066078 21.7916 0 21.6379 0 21.4777V8.52799C0 8.36776 0.066078 8.21409 0.183698 8.10079C0.301317 7.98748 0.460843 7.92383 0.627182 7.92383H24.1133C24.2796 7.92383 24.4391 7.98748 24.5568 8.10079C24.6744 8.21409 24.7405 8.36776 24.7405 8.52799V21.4777C24.7405 21.6379 24.6744 21.7916 24.5568 21.9049C24.4391 22.0182 24.2796 22.0819 24.1133 22.0819ZM1.25436 20.8735H23.4861V9.13216H1.25436V20.8735Z" fill="#1C1C1B"/>
<path d="M20.0694 20.2507H4.6739C4.50756 20.2507 4.34804 20.187 4.23042 20.0737C4.1128 19.9604 4.04672 19.8068 4.04672 19.6465C4.04622 19.325 3.91336 19.0167 3.67727 18.7894C3.44118 18.5621 3.12114 18.4343 2.78734 18.434C2.621 18.434 2.46147 18.3703 2.34385 18.257C2.22623 18.1437 2.16016 17.99 2.16016 17.8298V12.1754C2.16016 12.0152 2.22623 11.8615 2.34385 11.7482C2.46147 11.6349 2.621 11.5712 2.78734 11.5712C3.12119 11.5708 3.44123 11.4428 3.67731 11.2154C3.91338 10.988 4.04622 10.6797 4.04672 10.3581C4.04672 10.1978 4.1128 10.0442 4.23042 9.93086C4.34804 9.81756 4.50756 9.75391 4.6739 9.75391H20.0694C20.2357 9.75391 20.3952 9.81756 20.5128 9.93086C20.6305 10.0442 20.6965 10.1978 20.6965 10.3581C20.6969 10.6789 20.829 10.9866 21.064 11.2139C21.299 11.4412 21.6179 11.5696 21.9509 11.5712C22.1172 11.5712 22.2768 11.6349 22.3944 11.7482C22.512 11.8615 22.5781 12.0152 22.5781 12.1754V17.8298C22.5781 17.99 22.512 18.1437 22.3944 18.257C22.2768 18.3703 22.1172 18.434 21.9509 18.434C21.6172 18.4343 21.2972 18.5621 21.0612 18.7895C20.8252 19.0168 20.6925 19.325 20.6921 19.6465C20.6921 19.806 20.6267 19.9591 20.51 20.0723C20.3933 20.1854 20.2349 20.2496 20.0694 20.2507ZM5.22457 19.0424H19.5243C19.6365 18.624 19.8623 18.2421 20.1786 17.9357C20.4948 17.6294 20.8901 17.4097 21.3237 17.2993V12.7028C20.8889 12.5939 20.4923 12.3752 20.1746 12.0692C19.8569 11.7632 19.6299 11.3811 19.5168 10.9622H5.22143C5.10849 11.3811 4.88145 11.7633 4.56378 12.0693C4.24611 12.3753 3.84935 12.594 3.41452 12.7028V17.2993C3.84959 17.4085 4.2465 17.6276 4.56418 17.934C4.88185 18.2405 5.10876 18.6231 5.22143 19.0424H5.22457Z" fill="#1C1C1B"/>
<path d="M12.3698 18.3322C11.686 18.3323 11.0175 18.1371 10.4488 17.7712C9.88023 17.4053 9.43704 16.8851 9.17532 16.2766C8.91361 15.668 8.84513 14.9983 8.97855 14.3523C9.11197 13.7062 9.4413 13.1128 9.92487 12.647C10.4084 12.1813 11.0245 11.8642 11.6952 11.7358C12.3659 11.6074 13.0611 11.6734 13.6928 11.9257C14.3245 12.1779 14.8644 12.6049 15.2441 13.1527C15.6239 13.7005 15.8264 14.3445 15.8262 15.0033C15.8247 15.8858 15.46 16.7318 14.8121 17.3558C14.1642 17.9798 13.2859 18.3309 12.3698 18.3322ZM12.3698 12.8808C11.9341 12.8807 11.5082 13.005 11.1459 13.2381C10.7836 13.4711 10.5012 13.8024 10.3344 14.1901C10.1676 14.5778 10.1238 15.0044 10.2087 15.416C10.2935 15.8276 10.5032 16.2058 10.8112 16.5026C11.1191 16.7994 11.5116 17.0016 11.9388 17.0836C12.3661 17.1656 12.809 17.1237 13.2115 16.9632C13.614 16.8027 13.9581 16.5308 14.2002 16.182C14.4424 15.8331 14.5717 15.4229 14.5718 15.0033C14.5715 14.4407 14.3394 13.9012 13.9266 13.5032C13.5137 13.1053 12.9538 12.8815 12.3698 12.8808Z" fill="#1C1C1B"/>
<path d="M25.6015 18.6221C25.4406 18.6221 25.2858 18.5625 25.1692 18.4557C25.0526 18.3489 24.9831 18.203 24.975 18.0482C24.967 17.8933 25.021 17.7415 25.1259 17.6239C25.2309 17.5064 25.3787 17.4322 25.5388 17.4168L26.2626 17.3437L24.9894 5.66693L4.79849 7.70902C4.63298 7.72576 4.46735 7.67848 4.33803 7.57759C4.2087 7.47669 4.12629 7.33044 4.1089 7.171C4.09152 7.01157 4.1406 6.85202 4.24534 6.72744C4.35008 6.60286 4.5019 6.52347 4.66741 6.50672L25.4798 4.40181C25.5618 4.39343 25.6447 4.4007 25.7237 4.4232C25.8027 4.4457 25.8764 4.48298 25.9405 4.53292C26.0045 4.58286 26.0578 4.64447 26.0971 4.71424C26.1364 4.784 26.1611 4.86056 26.1697 4.93952L27.574 17.8185C27.5827 17.8975 27.5751 17.9773 27.5518 18.0535C27.5284 18.1296 27.4897 18.2006 27.4379 18.2623C27.386 18.324 27.3221 18.3753 27.2497 18.4132C27.1772 18.4511 27.0978 18.4748 27.0158 18.4831L25.668 18.6197C25.6454 18.6209 25.6235 18.6221 25.6015 18.6221Z" fill="#1C1C1B"/>
<path d="M28.4541 15.0329C28.2981 15.0327 28.1478 14.9766 28.0324 14.8755C27.9171 14.7743 27.845 14.6354 27.8303 14.4858C27.8155 14.3362 27.8592 14.1867 27.9527 14.0664C28.0463 13.9462 28.183 13.8638 28.3362 13.8354L28.7445 13.7599L26.4477 2.22878L6.79121 5.86103C6.7102 5.87598 6.62694 5.87542 6.54616 5.85938C6.46538 5.84333 6.38867 5.81212 6.32041 5.76752C6.18256 5.67744 6.0875 5.5383 6.05615 5.38071C6.04062 5.30268 6.04121 5.22247 6.05786 5.14465C6.07452 5.06684 6.10692 4.99295 6.15322 4.9272C6.19952 4.86144 6.25881 4.80512 6.32771 4.76144C6.3966 4.71776 6.47376 4.68759 6.55476 4.67263L26.8278 0.926797C26.9911 0.896687 27.16 0.930233 27.2976 1.02007C27.4352 1.1099 27.5302 1.24867 27.5616 1.4059L30.0942 14.1242C30.1254 14.2816 30.0905 14.4444 29.9971 14.577C29.9037 14.7095 29.7595 14.8009 29.5962 14.8311L28.5726 15.0202C28.5336 15.028 28.4939 15.0322 28.4541 15.0329Z" fill="#1C1C1B"/>
</svg>
