<svg width="87" height="21" viewBox="0 0 87 21" fill="none" xmlns="http://www.w3.org/2000/svg">
<path d="M18.9999 13.5406C19.4918 12.7872 20.1153 12.2871 21.0701 12.2979C22.0356 12.3087 22.6375 12.778 22.9704 13.697C23.117 13.5 23.2458 13.3257 23.3757 13.1503C24.0485 12.2449 25.4276 12.0056 26.3406 12.6454C26.8451 12.9977 27.0399 13.5325 27.1557 14.1083C27.2223 14.4363 27.2115 14.7654 27.2115 15.0977C27.2066 16.8978 27.2055 18.6964 27.2142 20.497C27.2158 20.7379 27.1508 20.8277 26.9078 20.8028C26.7195 20.7844 26.5257 20.7844 26.3352 20.8028C26.109 20.8245 26.0565 20.7347 26.0581 20.5187C26.0657 18.7359 26.0689 16.9525 26.0565 15.1691C26.0532 14.7573 26.0175 14.3459 25.775 13.9763C25.4411 13.4686 24.6687 13.4063 24.1892 13.6548C23.4434 14.0428 23.1944 14.7345 23.182 15.5031C23.1528 17.1528 23.1728 18.8024 23.1712 20.4516C23.1712 20.7964 23.1712 20.7964 22.8156 20.798H22.3171C21.9815 20.798 21.9799 20.7964 21.9799 20.4689V15.2206C21.9799 14.8525 21.9334 14.4921 21.7867 14.15C21.5794 13.6667 21.1864 13.4588 20.6171 13.5319C19.6889 13.6499 19.3343 14.347 19.192 15.043C19.113 15.4268 19.0838 15.8148 19.0854 16.2067C19.0913 17.6404 19.0838 19.0725 19.0913 20.5063C19.093 20.7287 19.0437 20.8261 18.8034 20.8045C18.5728 20.7844 18.339 20.7969 18.1074 20.8018C17.9618 20.8045 17.8909 20.7428 17.8968 20.5934C17.9017 20.4846 17.8968 20.3774 17.8968 20.2686V12.7942C17.8968 12.457 17.8985 12.457 18.2264 12.457C18.9414 12.4538 18.9414 12.4538 18.9414 13.1682V13.5113C18.9609 13.5216 18.9798 13.5308 18.9999 13.5406Z" fill="#322B42"/>
<path d="M26.5741 6.05588H28.1891C28.6919 6.05588 28.6827 6.05751 28.5994 5.54929C28.4121 4.40133 27.4265 3.66363 26.238 3.86064C25.3882 4.0019 24.6771 4.7986 24.5656 5.75875C24.5315 6.05534 24.5315 6.05697 24.8346 6.05697C25.4148 6.05751 25.9955 6.05588 26.5741 6.05588ZM27.1792 7.15405C26.3576 7.15405 25.536 7.16 24.7144 7.14918C24.4914 7.14647 24.4454 7.22657 24.479 7.43224C24.5331 7.75211 24.5997 8.06765 24.7112 8.37345C25.1815 9.66754 26.7662 10.1785 27.8649 9.3769C28.2081 9.12522 28.4343 8.77612 28.5658 8.37182C28.6232 8.19646 28.699 8.14342 28.8922 8.18672C29.1812 8.25221 29.48 8.27548 29.7755 8.30471C29.9054 8.31716 29.9487 8.34639 29.9119 8.48981C29.6055 9.62857 28.7309 10.5481 27.5413 10.7484C26.7586 10.8804 25.9706 10.8739 25.2221 10.5573C24.1093 10.0886 23.5074 9.20153 23.2785 8.04871C23.0945 7.1167 23.1194 6.18307 23.3684 5.26081C23.7104 3.98999 24.7101 2.97897 26.0718 2.79874C26.9443 2.684 27.7643 2.79711 28.49 3.30966C29.3955 3.94832 29.8193 4.86896 29.946 5.95034C29.9817 6.24856 29.9828 6.54678 29.9985 6.845C30.0125 7.11075 29.8713 7.15405 29.6656 7.15405H28.1972H27.1792Z" fill="#DF2B87"/>
<path d="M17.3093 3.74453C17.7812 3.21791 18.3522 2.8699 19.0531 2.7833C20.0252 2.66369 21.0649 2.92131 21.6251 3.78025C21.8497 4.12339 21.9438 4.51795 21.9704 4.91414C22.0943 6.7592 21.9969 8.60914 22.0277 10.4564C22.031 10.6068 21.9752 10.6647 21.8248 10.6599C21.5601 10.6523 21.2927 10.6458 21.0281 10.6615C20.8284 10.6723 20.7742 10.5976 20.7742 10.4039C20.7802 8.95445 20.7899 7.50557 20.7715 6.05614C20.7656 5.61341 20.7683 5.15715 20.5918 4.7312C20.4002 4.26845 20.0457 3.98755 19.5646 3.92043C18.3966 3.76077 17.4126 4.41133 17.2963 5.65996C17.1815 6.90588 17.2714 8.15613 17.2465 9.40313C17.2389 9.75277 17.2405 10.1019 17.2481 10.4531C17.2508 10.6009 17.2016 10.6647 17.0484 10.6599C16.7577 10.6523 16.4682 10.655 16.177 10.6583C16.0514 10.6599 15.9914 10.6117 15.9989 10.4813C16.0016 10.4315 15.9989 10.3817 15.9989 10.3319V0.336381C15.9989 0.00514561 15.9989 0.00514557 16.321 0.00514557C16.5358 0.00514557 16.7539 0.0192177 16.9677 0.00243944C17.1859 -0.01488 17.2524 0.0581865 17.2508 0.280634C17.24 1.3382 17.2459 2.39632 17.2459 3.45389V3.71963C17.2676 3.72884 17.2876 3.73641 17.3093 3.74453Z" fill="#DF2B87"/>
<path d="M11.2183 10.8081C10.5082 10.8282 9.83161 10.7134 9.23734 10.294C8.64036 9.87127 8.34593 9.25913 8.19005 8.56635C8.15433 8.41264 8.20845 8.32117 8.39139 8.30223C8.65443 8.27571 8.91314 8.21672 9.17293 8.16855C9.31852 8.14203 9.40187 8.17342 9.4376 8.3412C9.69306 9.57305 10.7062 9.84637 11.7167 9.73271C12.1048 9.68941 12.4501 9.56331 12.7348 9.27158C13.1342 8.86133 13.1943 8.02458 12.4577 7.72419C11.8943 7.49417 11.2973 7.38592 10.7203 7.20407C10.2143 7.04603 9.69901 6.91505 9.2395 6.63252C8.20412 5.99603 8.14838 4.50493 8.80922 3.68929C9.22543 3.17512 9.76991 2.93157 10.3826 2.82278C11.2756 2.66582 12.1454 2.75296 12.9664 3.17999C13.6116 3.51556 13.8687 4.0963 14.0045 4.76256C14.0278 4.87893 13.9872 4.94442 13.853 4.96119C13.5575 4.99854 13.2652 5.0532 12.9724 5.09921C12.8593 5.11815 12.8024 5.05916 12.7759 4.95632C12.5919 4.24352 12.1292 3.8955 11.4017 3.84301C11.0148 3.81486 10.6467 3.85221 10.2798 3.96099C10.02 4.03839 9.83432 4.22349 9.69198 4.43945C9.44301 4.81668 9.60051 5.31083 10.0351 5.53436C10.5336 5.78928 11.0846 5.89482 11.615 6.0534C12.107 6.20116 12.5973 6.35162 13.0801 6.53348C14.6286 7.11747 14.5685 8.97174 13.7842 9.85557C13.1997 10.5126 12.4474 10.7784 11.5917 10.8065C11.4672 10.8114 11.3422 10.8081 11.2183 10.8081Z" fill="#DF2B87"/>
<path d="M0.00819145 16.4695C-0.0394371 15.7967 0.114815 14.98 0.466075 14.2001C0.900686 13.2388 1.66058 12.6608 2.66511 12.4167C3.61227 12.1867 4.54644 12.2289 5.40538 12.7414C6.15877 13.1917 6.57823 13.8959 6.77308 14.7407C6.80555 14.8777 6.74493 14.9367 6.60746 14.9535C6.32926 14.9892 6.05053 15.0298 5.77504 15.0855C5.58777 15.1245 5.4844 15.0871 5.42703 14.8853C5.29064 14.4009 5.04924 13.9863 4.60976 13.7048C3.96624 13.2929 2.88485 13.4082 2.30735 13.911C1.70388 14.436 1.49226 15.118 1.40836 15.873C1.32014 16.6529 1.35749 17.4231 1.55504 18.1857C1.88627 19.4625 3.11163 20.1239 4.34348 19.6752C4.96427 19.45 5.28901 18.9483 5.48548 18.3454C5.50388 18.2896 5.51308 18.2317 5.52715 18.176C5.63865 17.7332 5.63865 17.7365 6.07975 17.8079C6.2995 17.8436 6.52086 17.8734 6.74222 17.901C6.85209 17.9151 6.93274 17.9227 6.90459 18.078C6.66591 19.4571 5.80914 20.5742 4.43982 20.8675C3.07536 21.1598 1.85434 20.8599 0.912052 19.7645C0.422777 19.1962 0.189505 18.5034 0.0644797 17.7684C0.000614119 17.3998 0.0206398 17.0269 0.00819145 16.4695Z" fill="#322B42"/>
<path d="M12.0782 19.5062H14.0451C14.6328 19.5062 15.0415 19.1041 15.0539 18.5076C15.0566 18.3415 15.0507 18.1737 15.0555 18.0075C15.0631 17.6952 15.2645 17.4885 15.5865 17.4593C15.8279 17.4376 16.1207 17.6628 16.1407 17.9345C16.1824 18.5184 16.184 19.1024 15.8468 19.6209C15.4988 20.1551 15.0285 20.5015 14.3893 20.6027C14.1338 20.6433 13.88 20.6509 13.6234 20.6509C12.4782 20.6493 11.3335 20.665 10.1882 20.645C9.30168 20.6293 8.60836 20.2536 8.20298 19.4288C8.08391 19.188 8.03303 18.9287 8.03303 18.657C8.03574 17.3413 8.04386 16.0255 8.02816 14.7098C8.02329 14.3558 8.03574 14.0143 8.19215 13.6923C8.66086 12.7262 9.4922 12.3749 10.4794 12.462C10.7002 12.4821 10.894 12.6872 10.9232 12.9048C10.9622 13.1824 10.8723 13.3784 10.6526 13.492C10.4794 13.5808 10.2948 13.6192 10.0984 13.5975C9.59882 13.5402 9.13444 13.9331 9.13174 14.4381C9.12362 15.8453 9.12578 17.2525 9.13174 18.6597C9.13336 19.0851 9.56148 19.5002 9.99067 19.503C10.6856 19.5094 11.3816 19.5062 12.0782 19.5062Z" fill="#322B42"/>
<path d="M14.0664 13.5558H12.4015C11.8765 13.5558 11.6449 13.1937 11.8505 12.6953C11.9139 12.5399 12.0351 12.4593 12.1991 12.4593C13.3519 12.4577 14.5048 12.4544 15.6587 12.4609C15.9001 12.4625 16.0007 12.5773 16.0007 12.8214C16.0023 13.9785 16.0023 15.1357 16.0007 16.2945C16.0007 16.5369 15.9001 16.6409 15.657 16.6549C15.5504 16.6609 15.4422 16.6582 15.3339 16.6566C15.0384 16.6533 14.9085 16.5261 14.9069 16.2339C14.9053 15.7007 14.9069 15.1682 14.9042 14.6356C14.9042 14.5669 14.9442 14.4662 14.8517 14.4386C14.7851 14.418 14.7418 14.5008 14.6953 14.5458C13.9668 15.2759 13.2393 16.0055 12.5136 16.7356C12.4313 16.8178 12.3479 16.8969 12.2397 16.9467C12.0183 17.049 11.8078 17.0241 11.6454 16.8503C11.4798 16.675 11.4441 16.4509 11.5431 16.2257C11.5956 16.1045 11.6903 16.0071 11.7845 15.9124C12.4903 15.2071 13.1944 14.5003 13.8969 13.7924C13.9581 13.7301 14.0452 13.6852 14.0664 13.5558Z" fill="#DF2B87"/>
<path fill-rule="evenodd" clip-rule="evenodd" d="M79.6504 20.4611L86.334 14.3641L83.1681 8.05664L79.6504 20.4611Z" fill="#097939"/>
<path fill-rule="evenodd" clip-rule="evenodd" d="M77.3984 20.4611L84.082 14.3641L80.9162 8.05664L77.3984 20.4611Z" fill="#ED752E"/>
<path fill-rule="evenodd" clip-rule="evenodd" d="M45.7908 8.12654L42.9768 18.1482L52.9667 18.2182L55.7107 8.12654H58.2433L54.9533 19.8585C54.8273 20.3065 54.3476 20.6705 53.8823 20.6705H41.0775C40.3009 20.6705 39.8408 20.0639 40.0508 19.3172L43.1887 8.12654H45.7908ZM76.6757 8.05654H79.2083L75.6906 20.6705H73.0866L76.6757 8.05654ZM58.5252 13.3121L71.1887 13.2421L72.0333 10.5789H59.158L59.9317 8.12607L73.6517 8.00007C74.5057 7.99214 75.0144 8.6534 74.7895 9.478L73.4968 14.2025C73.2714 15.0267 72.3955 15.6945 71.5415 15.6945H60.2136L58.878 20.8805H56.414L58.5252 13.3121Z" fill="#322B42"/>
</svg>
