<svg width="94" height="94" viewBox="0 0 94 94" fill="none" xmlns="http://www.w3.org/2000/svg">
<circle cx="46.631" cy="46.631" r="46.631" fill="#097939" fill-opacity="0.04"/>
<path d="M46.631 24.4248C34.3959 24.4248 24.4258 34.395 24.4258 46.63C24.4258 58.8651 34.3959 68.8353 46.631 68.8353C58.8661 68.8353 68.8362 58.8651 68.8362 46.63C68.8362 34.395 58.8661 24.4248 46.631 24.4248ZM57.2451 41.5228L44.6547 54.1132C44.3439 54.4241 43.922 54.6017 43.4779 54.6017C43.0338 54.6017 42.6119 54.4241 42.301 54.1132L36.0169 47.8291C35.373 47.1852 35.373 46.1193 36.0169 45.4754C36.6609 44.8314 37.7267 44.8314 38.3707 45.4754L43.4779 50.5826L54.8914 39.1691C55.5353 38.5251 56.6012 38.5251 57.2451 39.1691C57.8891 39.813 57.8891 40.8567 57.2451 41.5228Z" fill="#41D195"/>
</svg>
