<svg width="47" height="13" viewBox="0 0 47 13" fill="none" xmlns="http://www.w3.org/2000/svg">
<path fill-rule="evenodd" clip-rule="evenodd" d="M39.6504 12.4611L46.334 6.36411L43.1681 0.0566406L39.6504 12.4611Z" fill="#097939"/>
<path fill-rule="evenodd" clip-rule="evenodd" d="M37.3984 12.4611L44.082 6.36411L40.9162 0.0566406L37.3984 12.4611Z" fill="#ED752E"/>
<path fill-rule="evenodd" clip-rule="evenodd" d="M5.79081 0.126537L2.97681 10.1482L12.9667 10.2182L15.7107 0.126537H18.2433L14.9533 11.8585C14.8273 12.3065 14.3476 12.6705 13.8823 12.6705H1.07748C0.300942 12.6705 -0.159191 12.0639 0.0508087 11.3172L3.18868 0.126537H5.79081ZM36.6757 0.0565374H39.2083L35.6906 12.6705H33.0866L36.6757 0.0565374ZM18.5252 5.31214L31.1887 5.24214L32.0333 2.57887H19.158L19.9317 0.126071L33.6517 7.06427e-05C34.5057 -0.00786269 35.0144 0.653404 34.7895 1.478L33.4968 6.20254C33.2714 7.02667 32.3955 7.69447 31.5415 7.69447H20.2136L18.878 12.8805H16.414L18.5252 5.31214Z" fill="#322B42"/>
</svg>
