<svg width="20" height="20" viewBox="0 0 20 20" fill="none" xmlns="http://www.w3.org/2000/svg">
<path d="M9.99992 0.833984C4.94909 0.833984 0.833252 4.94982 0.833252 10.0007C0.833252 15.0515 4.94909 19.1673 9.99992 19.1673C15.0508 19.1673 19.1666 15.0515 19.1666 10.0007C19.1666 4.94982 15.0508 0.833984 9.99992 0.833984ZM14.3816 7.89232L9.18408 13.0898C9.05575 13.2182 8.88159 13.2915 8.69825 13.2915C8.51492 13.2915 8.34075 13.2182 8.21242 13.0898L5.61825 10.4957C5.35242 10.2298 5.35242 9.78982 5.61825 9.52398C5.88409 9.25815 6.32409 9.25815 6.58992 9.52398L8.69825 11.6323L13.4099 6.92065C13.6758 6.65482 14.1158 6.65482 14.3816 6.92065C14.6474 7.18648 14.6474 7.61732 14.3816 7.89232Z" fill="#54565C"/>
</svg>
